<svg xmlns="http://www.w3.org/2000/svg" version="1.1" xmlns:xlink="http://www.w3.org/1999/xlink" xmlns:svgjs="http://svgjs.dev/svgjs" width="1900" height="250" preserveAspectRatio="none" viewBox="0 0 1440 400"><g mask="url(&quot;#SvgjsMask1345&quot;)" fill="none"><path d="M 0,61 C 96,68.8 288,109.2 480,100 C 672,90.8 768,11.6 960,15 C 1152,18.4 1344,96.6 1440,117L1440 400L0 400z" fill="rgba(249, 241, 240, 1)"></path><path d="M 0,180 C 57.6,193.4 172.8,252 288,247 C 403.2,242 460.8,161.8 576,155 C 691.2,148.2 748.8,213.6 864,213 C 979.2,212.4 1036.8,146.8 1152,152 C 1267.2,157.2 1382.4,221.6 1440,239L1440 400L0 400z" fill="rgba(250, 220, 217, 1)"></path><path d="M 0,387 C 96,366.4 288,291.6 480,284 C 672,276.4 768,345.6 960,349 C 1152,352.4 1344,310.6 1440,301L1440 400L0 400z" fill="rgba(249, 200, 194, 1)"></path></g><defs><mask id="SvgjsMask1345"><rect width="1440" height="400" fill="#ffffff"></rect></mask></defs></svg>